<svg width="25" height="25" viewBox="0 0 25 25" fill="none" xmlns="http://www.w3.org/2000/svg">
<path fill-rule="evenodd" clip-rule="evenodd" d="M3.5 20.75V11H5V20.75C5 21.1642 5.33579 21.5 5.75 21.5H19.25C19.6642 21.5 20 21.1642 20 20.75V11H21.5V20.75C21.5 21.9926 20.4926 23 19.25 23H5.75C4.50736 23 3.5 21.9926 3.5 20.75Z" fill="#000066"/>
<path fill-rule="evenodd" clip-rule="evenodd" d="M20 4.25001V9.50001L17 6.50001V4.25001C17 3.8358 17.3358 3.50001 17.75 3.50001H19.25C19.6642 3.50001 20 3.8358 20 4.25001Z" fill="#000066"/>
<path fill-rule="evenodd" clip-rule="evenodd" d="M11.4393 2.75001C12.0251 2.16422 12.9749 2.16422 13.5607 2.75001L23.5303 12.7197C23.8232 13.0126 23.8232 13.4874 23.5303 13.7803C23.2374 14.0732 22.7626 14.0732 22.4697 13.7803L12.5 3.81067L2.53033 13.7803C2.23744 14.0732 1.76256 14.0732 1.46967 13.7803C1.17678 13.4874 1.17678 13.0126 1.46967 12.7197L11.4393 2.75001Z" fill="#000066"/>
</svg>
