<svg width="17" height="16" viewBox="0 0 17 16" fill="none" xmlns="http://www.w3.org/2000/svg">
<path fill-rule="evenodd" clip-rule="evenodd" d="M8.5 15C12.366 15 15.5 11.866 15.5 8C15.5 4.13401 12.366 1 8.5 1C4.63401 1 1.5 4.13401 1.5 8C1.5 11.866 4.63401 15 8.5 15ZM8.5 16C12.9183 16 16.5 12.4183 16.5 8C16.5 3.58172 12.9183 0 8.5 0C4.08172 0 0.5 3.58172 0.5 8C0.5 12.4183 4.08172 16 8.5 16Z" fill="#000066"/>
<path d="M9.4307 6.58789L7.13969 6.875L7.05766 7.25586L7.50883 7.33789C7.8018 7.4082 7.86039 7.51367 7.79594 7.80664L7.05766 11.2754C6.8643 12.1719 7.16312 12.5938 7.86625 12.5938C8.41117 12.5938 9.04398 12.3418 9.33109 11.9961L9.41898 11.5801C9.21977 11.7559 8.9268 11.8262 8.73344 11.8262C8.45805 11.8262 8.35844 11.6328 8.42875 11.293L9.4307 6.58789Z" fill="#000066"/>
<circle cx="8.5" cy="4.5" r="1" fill="#000066"/>
</svg>
