<svg width="25" height="25" viewBox="0 0 25 25" fill="none" xmlns="http://www.w3.org/2000/svg">
<path fill-rule="evenodd" clip-rule="evenodd" d="M12.5 23C18.299 23 23 18.299 23 12.5C23 6.70101 18.299 2 12.5 2C6.70101 2 2 6.70101 2 12.5C2 18.299 6.70101 23 12.5 23ZM12.5 24.5C19.1274 24.5 24.5 19.1274 24.5 12.5C24.5 5.87258 19.1274 0.5 12.5 0.5C5.87258 0.5 0.5 5.87258 0.5 12.5C0.5 19.1274 5.87258 24.5 12.5 24.5Z" fill="#000066"/>
<path d="M8.37735 9.30298C8.3732 9.43935 8.48516 9.54907 8.62159 9.54907H10.1062C10.2443 9.54907 10.3549 9.43675 10.367 9.29921C10.459 8.25173 11.1396 7.47339 12.3938 7.47339C13.4222 7.47339 14.3648 7.98755 14.3648 9.22534C14.3648 10.1775 13.803 10.6155 12.9175 11.282C11.9082 12.0151 11.1084 12.8721 11.1656 14.2622L11.1717 14.7107C11.1736 14.8474 11.2849 14.9573 11.4217 14.9573H12.8865C13.0246 14.9573 13.1365 14.8453 13.1365 14.7073V14.4241C13.1365 13.3481 13.5459 13.0339 14.6504 12.196C15.5645 11.501 16.5166 10.7297 16.5166 9.11108C16.5166 6.84497 14.6028 5.75 12.5081 5.75C10.577 5.75 8.45754 6.66459 8.37735 9.30298ZM10.718 17.8232C10.718 18.623 11.356 19.2134 12.232 19.2134C13.146 19.2134 13.7744 18.623 13.7744 17.8232C13.7744 16.9949 13.146 16.4141 12.232 16.4141C11.356 16.4141 10.718 16.9949 10.718 17.8232Z" fill="#000066"/>
</svg>
