<svg width="24" height="25" viewBox="0 0 24 25" fill="none" xmlns="http://www.w3.org/2000/svg">
<path fill-rule="evenodd" clip-rule="evenodd" d="M21.75 20.75H2.25C1.83579 20.75 1.5 20.4142 1.5 20V9.5C1.5 9.08579 1.83579 8.75 2.25 8.75H21.75C22.1642 8.75 22.5 9.08579 22.5 9.5V20C22.5 20.4142 22.1642 20.75 21.75 20.75ZM2.25 22.25C1.00736 22.25 0 21.2426 0 20V9.5C0 8.25736 1.00736 7.25 2.25 7.25H21.75C22.9926 7.25 24 8.25736 24 9.5V20C24 21.2426 22.9926 22.25 21.75 22.25H2.25Z" fill="#000066"/>
<path fill-rule="evenodd" clip-rule="evenodd" d="M3 5C3 5.41421 3.33579 5.75 3.75 5.75H20.25C20.6642 5.75 21 5.41421 21 5C21 4.58579 20.6642 4.25 20.25 4.25H3.75C3.33579 4.25 3 4.58579 3 5ZM6 2C6 2.41421 6.33579 2.75 6.75 2.75H17.25C17.6642 2.75 18 2.41421 18 2C18 1.58579 17.6642 1.25 17.25 1.25H6.75C6.33579 1.25 6 1.58579 6 2Z" fill="#000066"/>
<path fill-rule="evenodd" clip-rule="evenodd" d="M9.38642 10.344C9.62489 10.2118 9.9163 10.2195 10.1475 10.364L16.1475 14.114C16.3668 14.2511 16.5 14.4914 16.5 14.75C16.5 15.0086 16.3668 15.2489 16.1475 15.386L10.1475 19.136C9.9163 19.2805 9.62489 19.2882 9.38642 19.156C9.14796 19.0238 9 18.7726 9 18.5V11C9 10.7274 9.14796 10.4762 9.38642 10.344Z" fill="#000066"/>
</svg>
