<svg width="26" height="27" viewBox="0 0 26 27" fill="none" xmlns="http://www.w3.org/2000/svg">
<path fill-rule="evenodd" clip-rule="evenodd" d="M16.25 8.625C16.25 10.4199 14.7949 11.875 13 11.875C11.2051 11.875 9.75 10.4199 9.75 8.625C9.75 6.83007 11.2051 5.375 13 5.375C14.7949 5.375 16.25 6.83007 16.25 8.625ZM13 13.5C15.6924 13.5 17.875 11.3174 17.875 8.625C17.875 5.93261 15.6924 3.75 13 3.75C10.3076 3.75 8.125 5.93261 8.125 8.625C8.125 11.3174 10.3076 13.5 13 13.5ZM22.75 21.625C22.75 23.25 21.125 23.25 21.125 23.25H4.875C4.875 23.25 3.25 23.25 3.25 21.625C3.25 20 4.875 15.125 13 15.125C21.125 15.125 22.75 20 22.75 21.625ZM21.125 21.6193C21.1227 21.2183 20.8751 20.017 19.7728 18.9147C18.7129 17.8548 16.7198 16.75 13 16.75C9.28018 16.75 7.28707 17.8548 6.22716 18.9147C5.12485 20.017 4.87731 21.2183 4.875 21.6193H21.125Z" fill="#000066"/>
</svg>
