<svg width="28" height="22" viewBox="0 0 40 33" fill="none" xmlns="http://www.w3.org/2000/svg">
<path d="M32.4443 3.50231C33.2755 3.50231 33.9442 2.82749 33.9442 2.00272C33.9442 1.17794 33.2693 0.503124 32.4443 0.503124C31.6194 0.503124 30.9445 1.17169 30.9445 2.00272C30.9445 2.83374 31.6694 3.50231 32.4443 3.50231ZM29.4446 6.50149C30.2695 6.50149 30.9445 5.83292 30.9445 5.0019C30.9445 4.17087 30.2695 3.50231 29.4446 3.50231C28.6196 3.50231 27.9447 4.17087 27.9447 5.0019C27.9447 5.83292 28.6696 6.50149 29.4446 6.50149ZM30.0695 12.5498L39.7 2.92121C40.0937 2.53382 40.0937 1.89649 39.7 1.5091L39.0001 0.809291C38.6064 0.421896 37.9752 0.421896 37.5877 0.809291L27.9447 10.4379C26.9823 9.63188 25.8824 9.00081 24.6637 8.71963C23.4888 8.44471 20.6578 8.0948 18.5329 10.2192C18.3017 10.4442 18.1267 10.7128 17.9517 10.969C18.3642 14.0244 15.4019 16.3113 12.5771 15.2304C11.571 15.5553 10.746 16.0551 10.0148 16.7862C7.3588 19.4355 7.3963 23.8842 9.80861 27.4895L8.43997 28.3955C8.18999 28.5642 8.0275 28.8329 8.0025 29.1266C7.97125 29.4265 8.07125 29.7202 8.28998 29.9326L10.5648 32.207C10.7773 32.4257 11.071 32.5256 11.371 32.4944C11.671 32.4694 11.9334 32.307 12.1084 32.057L13.0084 30.7011C14.7707 31.8883 16.7456 32.4944 18.6079 32.4944C20.4703 32.4944 22.3701 31.8383 23.72 30.4887C24.4512 29.7639 24.9512 28.8766 25.2761 27.9269C24.2012 25.1152 26.4823 22.1535 29.5258 22.5596C29.7821 22.3784 30.057 22.1972 30.2945 21.966C31.8506 20.4039 32.3194 18.1171 31.7944 15.8489C31.5132 14.618 30.8257 13.5246 30.0758 12.5561L30.0695 12.5498ZM28.4322 19.5229C24.595 19.8354 21.3452 23.4406 22.1139 27.6957C21.8014 28.2456 20.8265 29.4952 18.6142 29.4952C17.2768 29.4952 15.9081 29.0328 14.6832 28.2081L14.977 27.7582C15.2394 27.3583 15.1894 26.8334 14.852 26.496L14.0145 25.6525C13.6708 25.3151 13.1521 25.2589 12.7521 25.5275L12.3022 25.8275C11.4772 24.5903 11.0085 23.2219 11.0085 21.891C11.0085 20.254 11.7335 19.0106 12.8146 18.392C17.0955 19.1668 20.689 15.9177 20.9952 12.0562C21.6202 11.6001 22.3576 11.5001 22.8951 11.5001C23.2701 11.5001 23.6388 11.5439 23.995 11.6313C24.6824 11.7875 25.3074 12.1624 25.8199 12.5686L20.3015 18.0796C19.9078 18.467 19.9078 19.1043 20.3015 19.4917L21.0077 20.1915C21.4015 20.5789 22.0327 20.5789 22.4201 20.1915L27.9447 14.6805C28.3447 15.2054 28.7196 15.8177 28.8759 16.5113C29.1446 17.6922 28.9821 18.7669 28.4384 19.5167L28.4322 19.5229ZM38.4439 6.50149C37.6189 6.50149 36.944 7.17006 36.944 8.00108C36.944 8.8321 37.6189 9.50067 38.4439 9.50067C39.3313 9.50067 40 8.8321 40 8.00108C40 7.17006 39.3313 6.50149 38.4439 6.50149ZM35.4441 9.50067C34.6129 9.50067 33.9442 10.1692 33.9442 11.0003C33.9442 11.8313 34.6129 12.4999 35.4441 12.4999C36.2753 12.4999 36.944 11.825 36.944 11.0003C36.944 10.1755 36.3253 9.50067 35.4441 9.50067ZM21.5639 0.940505C20.9765 0.353165 20.0266 0.353165 19.4454 0.940505L0.440591 19.9353C-0.146864 20.5227 -0.146864 21.4724 0.440591 22.0535C0.734318 22.3472 1.11554 22.4909 1.50301 22.4909C1.89048 22.4909 2.2717 22.3472 2.56542 22.0535L21.5639 3.05868C22.1514 2.47134 22.1514 1.52784 21.5639 0.940505Z" fill="#4A5568"/>
<path d="M17.4642 25.7282C18.9967 25.7282 20.239 24.4861 20.239 22.9539C20.239 21.4218 18.9967 20.1797 17.4642 20.1797C15.9318 20.1797 14.6895 21.4218 14.6895 22.9539C14.6895 24.4861 15.9318 25.7282 17.4642 25.7282Z" fill="#2D3748"/>
</svg>
