<svg width="28" height="22" viewBox="0 0 24 33" fill="none" xmlns="http://www.w3.org/2000/svg">
<path d="M22.1184 13.0359L19.8238 13.4969C19.4687 13.5711 19.2091 13.8626 19.2091 14.2494V18.1073C18.9653 18.0438 18.7162 18.0014 18.446 18.0014C17.1794 18.0014 16.1514 18.7698 16.1514 19.7236C16.1514 20.6775 17.1794 21.4459 18.446 21.4459C19.7125 21.4459 20.7406 20.6722 20.7406 19.7236V16.3798L22.4205 16.0459C22.7755 15.9717 23.0352 15.6379 23.0352 15.2934V13.7937C23.0352 13.3115 22.59 12.9511 22.1184 13.0412V13.0359Z" fill="#4A5568"/>
<path d="M6.42698 0.513861L4.13238 0.969602C3.77733 1.04379 3.51766 1.33525 3.51766 1.7221V5.58C3.27389 5.51641 3.02483 5.47402 2.75456 5.47402C1.48803 5.47402 0.459961 6.24242 0.459961 7.19629C0.459961 8.15017 1.48803 8.91857 2.75456 8.91857C4.0211 8.91857 5.04916 8.14487 5.04916 7.19629V3.85243L6.72905 3.51857C7.0841 3.44438 7.34377 3.11052 7.34377 2.76607V1.26636C7.34377 0.784126 6.89862 0.423773 6.42698 0.513861Z" fill="#4A5568"/>
<path d="M11.7481 27.5294C10.5716 28.8596 9.40047 30.1897 8.22403 31.5198C8.08625 31.6788 7.96436 31.8484 7.81598 31.9967C7.23836 32.5532 6.41696 32.6221 5.81284 32.1716C5.21932 31.7265 5.04444 30.8945 5.47898 30.2056C5.84994 29.6174 6.30038 29.0821 6.72962 28.531C7.41853 27.6513 8.11804 26.7875 8.86524 25.8443C8.29822 24.9911 7.76299 24.1008 7.14297 23.2741C6.01421 21.7638 5.74925 20.1263 6.23149 18.3298C6.63423 16.8248 7.02108 15.3145 7.45563 13.6611C6.85151 13.7035 6.34277 13.7512 5.83934 13.7724C5.373 13.7936 5.08684 13.995 4.90136 14.4454C4.44032 15.5371 3.94218 16.6076 3.43875 17.678C3.0625 18.4782 2.39479 18.8492 1.70587 18.7008C0.789094 18.4994 0.243265 17.6038 0.571823 16.6976C1.13885 15.129 1.72707 13.5604 2.39479 12.0289C2.82933 11.038 3.69842 10.5292 4.77418 10.3862C6.80911 10.1106 8.84935 9.86153 10.879 9.53827C13.2637 9.15142 15.6166 8.5685 17.625 7.17478C18.722 6.41168 19.6069 5.34122 20.6085 4.43504C20.9583 4.11708 21.3292 3.75673 21.7532 3.60834C22.3679 3.40167 22.9296 3.68783 23.2847 4.23366C23.6662 4.81659 23.5973 5.43131 23.2317 6.00893C22.2566 7.56163 21.1278 8.98714 19.554 9.95692C18.2821 10.7359 16.9414 11.4036 15.6007 12.066C15.1078 12.3045 14.7369 12.5271 14.5461 13.0941C13.9844 14.7793 13.3856 16.4486 12.7549 18.1126C12.5536 18.6531 12.649 19.0081 13.0411 19.4109C14.2069 20.6138 15.3198 21.8592 16.4698 23.078C17.5932 24.2704 17.7204 25.2083 16.7771 26.5226C15.5 28.3084 14.1699 30.0572 12.8397 31.8007C12.2515 32.5744 11.34 32.7069 10.6299 32.1928C9.92511 31.6841 9.76613 30.7938 10.2908 29.9724C10.7942 29.1828 11.3506 28.4197 11.8858 27.646L11.7481 27.5347V27.5294ZM12.5748 26.618C12.8821 26.1675 13.1842 25.7171 13.4756 25.2931C12.5271 24.3816 11.6368 23.5232 10.9108 22.8289C11.3771 23.9259 12.8662 24.8533 12.5748 26.618Z" fill="#4A5568"/>
<path d="M11.7695 1.9707C13.5766 1.9707 14.9544 3.32733 14.965 5.12379C14.9809 6.97325 13.5819 8.40937 11.7695 8.40937C10.0101 8.40937 8.55812 6.97855 8.54223 5.22978C8.52103 3.40682 9.94124 1.976 11.7695 1.976V1.9707Z" fill="#2D3748"/>
</svg>
