<svg width="28" height="22" viewBox="0 0 50 33" fill="none" xmlns="http://www.w3.org/2000/svg">
<path d="M47.2039 0.5C46.3714 0.5 45.6005 0.900834 45.1535 1.60229C45.1149 1.64854 41.677 6.72063 36.4739 9.39543C35.3562 9.98126 34.0072 10.2973 32.5889 10.2973H31.1705V9.68064C31.1705 8.65543 30.3457 7.90001 29.3205 7.90001C28.2953 7.90001 27.4705 8.7248 27.4705 9.68064V10.2279H24.3872V9.68064C24.3872 8.65543 23.5624 7.90001 22.5372 7.90001C21.512 7.90001 20.6872 8.7248 20.6872 9.68064V10.2279H17.6038V9.68064C17.6038 8.65543 16.7791 7.90001 15.7538 7.90001C14.7286 7.90001 13.9038 8.7248 13.9038 9.68064V10.2279H4.03716V9.68064C4.03716 8.65543 3.20466 7.90001 2.18716 7.90001C1.16966 7.90001 0.337158 8.7248 0.337158 9.68064V20.7113C0.337158 21.7365 1.16195 22.4919 2.18716 22.4919C3.21237 22.4919 4.03716 21.8675 4.03716 20.7806V20.164H6.55008C4.96216 22.6306 4.84654 25.8296 6.24946 28.3348C7.64467 30.9788 10.2886 32.5744 13.2795 32.4973H31.7795C34.1382 32.5436 36.4045 31.5261 37.9307 29.7146C39.4647 27.9109 40.0968 25.5213 39.6651 23.1934C43.026 25.845 45.1149 28.8282 45.1458 28.9361C45.6005 29.6838 46.3714 30.0307 47.1962 30.0307C48.021 30.0307 49.6628 29.4371 49.6628 27.6334V2.89729C49.6628 2.18813 49.0693 0.5 47.1962 0.5H47.2039ZM13.9038 28.7973H13.2872C10.9053 28.7973 8.9705 26.8625 8.9705 24.4807C8.9705 22.0988 10.9053 20.2334 13.2872 20.2334H13.9038V28.7973ZM20.6872 28.7973H17.6038V20.164H20.6872V28.7973ZM27.4705 28.7973H24.3872V20.164H27.4705V28.7973ZM31.7872 28.7973H31.1705V20.164H31.7872C34.1691 20.164 36.1039 22.0988 36.1039 24.4113C36.1039 26.7238 34.1691 28.7973 31.7872 28.7973ZM45.9705 24.1261C44.2207 22.1681 41.5305 19.6244 38.2005 17.8746C36.5432 16.9959 34.6007 16.5333 32.5889 16.5333H4.03716V13.9973H32.5966C34.6084 13.9973 36.5509 13.5348 38.2082 12.6561C41.5614 10.9525 44.2362 8.43188 45.9705 6.48167V24.1261Z" fill="#4A5568"/>
</svg>
