<svg width="28" height="22" viewBox="0 0 34 33" fill="none" xmlns="http://www.w3.org/2000/svg">
<path d="M32.9455 2.97591C32.7205 1.76799 31.7832 0.822926 30.5771 0.578837C29.1461 0.315973 29.1586 0.541285 23.9158 3.93975C23.3409 4.30901 22.991 4.88481 22.991 5.57327V8.36464L17.7919 13.5719C17.6107 13.3465 17.5669 13.0336 17.6856 12.7645L18.6792 10.6303C19.2104 9.49746 18.8479 8.13933 17.8169 7.42584C16.792 6.76242 15.3985 6.88133 14.5112 7.77006L12.2553 9.97938C11.6305 10.6052 11.2118 11.3625 10.9118 12.195C10.6369 12.946 10.087 13.5531 9.36835 13.8911L4.96912 15.9314C3.0882 16.7075 1.56972 18.4599 1.13229 20.5878C0.69487 22.7095 1.351 24.85 2.82575 26.4397L7.04376 30.6643C8.57474 32.1977 10.7681 32.7985 12.8865 32.3604C15.0049 31.9286 16.7046 30.4515 17.5669 28.4425L19.5103 24.1177C19.8478 23.398 20.4602 22.841 21.2038 22.5718C22.0411 22.2714 22.7972 21.7958 23.4221 21.1699L24.6657 19.9244C25.6967 18.8917 25.6967 17.2144 24.6657 16.1817C23.5659 15.0802 22.2348 15.4557 21.9974 15.5308L20.6289 15.9627C20.1914 16.1004 19.9102 15.85 19.7853 15.7186L29.1149 6.36812C29.3648 6.43696 29.621 6.48078 29.8835 6.48078C30.7771 6.48078 31.6269 6.08648 32.1956 5.39802C32.883 4.7659 33.1142 3.85839 32.9517 2.98217L32.9455 2.97591ZM20.5039 18.5538C20.8413 18.5538 21.1788 18.4974 21.4475 18.3973L22.9535 17.9967L21.7099 19.4425C21.3412 19.8055 20.9038 20.0746 20.4227 20.1998C19.1041 20.6942 17.9231 21.7207 17.2982 23.0475L15.2423 27.4974C14.7487 28.7241 13.7363 29.5691 12.3866 29.8882C11.0868 30.1574 9.75578 29.7568 8.81844 28.818L4.60043 24.5934C3.65685 23.6609 3.25067 22.3152 3.51937 21.0197C3.79433 19.6991 4.66917 18.6539 5.9627 18.1344L10.3494 16.1004C11.6867 15.5308 12.7053 14.4043 13.1989 13.0274C13.3739 12.5454 13.6488 12.1073 13.955 11.7381L16.2171 9.50998L15.4048 11.7631C14.8299 13.0211 15.0861 14.5107 16.0609 15.487L18.1606 17.5899C18.7792 18.2095 19.6166 18.5538 20.4914 18.5538H20.5039ZM9.41209 20.8257C9.02466 20.4376 8.38727 20.4376 7.99984 20.8257L7.28746 21.5266C6.90003 21.9147 6.90003 22.5531 7.28746 22.9411L10.5806 26.2332C10.9681 26.6212 11.6055 26.6212 11.9929 26.2332L12.6928 25.5322C13.0802 25.1442 13.0802 24.5058 12.6928 24.1177L9.40584 20.8257H9.41209ZM13.4114 16.8201C13.024 16.4321 12.3866 16.4321 11.9991 16.8201L11.2868 17.5211C10.8993 17.9091 10.8993 18.5475 11.2868 18.9356L14.5799 22.2276C14.9674 22.6157 15.6048 22.6157 15.9922 22.2276L16.6921 21.5266C17.0795 21.1386 17.0795 20.5002 16.6921 20.1122L13.4051 16.8201H13.4114Z" fill="#4A5568"/>
</svg>
