<svg width="28" height="22" viewBox="0 0 34 33" fill="none" xmlns="http://www.w3.org/2000/svg">
<path d="M17.0001 5.84375L18.565 3.28125C19.617 1.5625 21.539 0.5 23.6105 0.5H23.7533C26.9092 0.5 29.4676 2.9625 29.4676 6C29.4676 6.9 29.2403 7.69375 28.8442 8.5H30.5066C32.2274 8.5 33.6235 9.84375 33.6235 11.5V15.5C33.6235 16.8062 32.7533 17.9188 31.5455 18.3313V28.5C31.5455 30.7062 29.6819 32.5 27.3897 32.5H6.61048C4.31827 32.5 2.45463 30.7062 2.45463 28.5V18.3313C1.24684 17.9188 0.376709 16.8062 0.376709 15.5V11.5C0.376709 9.84375 1.77281 8.5 3.49359 8.5H5.15593C4.75983 7.69375 4.53255 6.9 4.53255 6C4.53255 2.9625 7.09099 0.5 10.2468 0.5H10.3897C12.4611 0.5 14.3832 1.55625 15.4352 3.28125L17.0001 5.84375ZM19.078 11.5V15.5H30.5066V11.5H19.078ZM14.9222 11.5H3.49359V15.5H14.9222V11.5ZM14.9222 18.5H5.57151V28.5C5.57151 29.05 6.03905 29.5 6.61048 29.5H14.9222V18.5ZM19.078 29.5H27.3897C27.9611 29.5 28.4287 29.05 28.4287 28.5V18.5H19.078V29.5ZM23.7533 8.5C25.1884 8.5 26.3507 7.38125 26.3507 6C26.3507 4.61875 25.1884 3.5 23.7533 3.5H23.6105C22.6429 3.5 21.7468 3.99375 21.2533 4.8L18.9936 8.5H23.7533ZM15.0066 8.5L12.7468 4.8C12.2533 3.99375 11.3572 3.5 10.3897 3.5H10.2468C8.81177 3.5 7.64944 4.61875 7.64944 6C7.64944 7.38125 8.81177 8.5 10.2468 8.5H15.0066Z" fill="#4A5568"/>
</svg>
