<svg width="48" height="48" viewBox="0 0 48 48" fill="none" xmlns="http://www.w3.org/2000/svg">
<g clip-path="url(#clip0_7589_184284)">
<path fill-rule="evenodd" clip-rule="evenodd" d="M0.32698 1.63803C0 2.27976 0 3.11984 0 4.8V43.2C0 44.8802 0 45.7202 0.32698 46.362C0.614601 46.9265 1.07354 47.3854 1.63803 47.673C2.27976 48 3.11984 48 4.8 48H43.2C44.8802 48 45.7202 48 46.362 47.673C46.9265 47.3854 47.3854 46.9265 47.673 46.362C48 45.7202 48 44.8802 48 43.2V4.8C48 3.11984 48 2.27976 47.673 1.63803C47.3854 1.07354 46.9265 0.614601 46.362 0.32698C45.7202 0 44.8802 0 43.2 0H4.8C3.11984 0 2.27976 0 1.63803 0.32698C1.07354 0.614601 0.614601 1.07354 0.32698 1.63803ZM35.3484 16.3039C34.4111 15.3666 32.8915 15.3666 31.9542 16.3039L19.2513 29.0068L14.8973 24.6529C13.9601 23.7156 12.4405 23.7156 11.5032 24.6529C10.566 25.5901 10.566 27.1097 11.5032 28.047L17.5542 34.098C18.4915 35.0353 20.0111 35.0353 20.9483 34.098L35.3484 19.698C36.2856 18.7607 36.2856 17.2411 35.3484 16.3039Z" fill="#00BD3E"/>
</g>
<defs>
<clipPath id="clip0_7589_184284">
<rect width="48" height="48" rx="4" fill="white"/>
</clipPath>
</defs>
</svg>
