<svg width="18" height="12" viewBox="0 0 18 12" fill="none" xmlns="http://www.w3.org/2000/svg">
<path fill-rule="evenodd" clip-rule="evenodd" d="M-2.62268e-07 6C-2.78362e-07 6.36819 0.287817 6.66667 0.642857 6.66667L15.8051 6.66667L11.7597 10.8619C11.5087 11.1223 11.5087 11.5444 11.7597 11.8047C12.0108 12.0651 12.4178 12.0651 12.6689 11.8047L17.8117 6.47141C18.0628 6.21106 18.0628 5.78895 17.8117 5.5286L12.6689 0.195263C12.4178 -0.0650868 12.0108 -0.0650869 11.7597 0.195263C11.5087 0.455612 11.5087 0.877723 11.7597 1.13807L15.8051 5.33333L0.642857 5.33333C0.287817 5.33333 -2.46174e-07 5.63181 -2.62268e-07 6Z" fill="black"/>
</svg>
