<svg width="80" height="80" viewBox="0 0 80 80" fill="none" xmlns="http://www.w3.org/2000/svg">
<circle cx="40" cy="40" r="40" fill="url(#paint0_linear_7405_183742)"/>
<path fill-rule="evenodd" clip-rule="evenodd" d="M53.6169 30.6386C53.6169 28.7585 52.0927 27.2344 50.2126 27.2344H29.7871C27.9069 27.2344 26.3828 28.7585 26.3828 30.6386V44.2557C26.3828 46.1358 27.9069 47.6599 29.7871 47.6599H46.1033C46.5547 47.6599 46.9877 47.8392 47.3069 48.1584L52.164 53.0156C52.7001 53.5517 53.6169 53.172 53.6169 52.4138V30.6386ZM34.8935 37.4471C34.8935 38.3872 34.1314 39.1493 33.1913 39.1493C32.2513 39.1493 31.4892 38.3872 31.4892 37.4471C31.4892 36.5071 32.2513 35.745 33.1913 35.745C34.1314 35.745 34.8935 36.5071 34.8935 37.4471ZM41.702 37.4471C41.702 38.3872 40.9399 39.1493 39.9998 39.1493C39.0598 39.1493 38.2977 38.3872 38.2977 37.4471C38.2977 36.5071 39.0598 35.745 39.9998 35.745C40.9399 35.745 41.702 36.5071 41.702 37.4471ZM46.8083 39.1493C47.7484 39.1493 48.5105 38.3872 48.5105 37.4471C48.5105 36.5071 47.7484 35.745 46.8083 35.745C45.8683 35.745 45.1062 36.5071 45.1062 37.4471C45.1062 38.3872 45.8683 39.1493 46.8083 39.1493Z" fill="white"/>
<defs>
<linearGradient id="paint0_linear_7405_183742" x1="80" y1="0" x2="0" y2="80" gradientUnits="userSpaceOnUse">
<stop stop-color="#29272E"/>
<stop offset="1" stop-color="#27272E"/>
</linearGradient>
</defs>
</svg>
