<svg width="30" height="31" viewBox="0 0 30 31" fill="none" xmlns="http://www.w3.org/2000/svg">
<path fill-rule="evenodd" clip-rule="evenodd" d="M15.9656 2.41056C15.645 2.38691 15.323 2.375 15 2.375V0.5C15.3691 0.5 15.7371 0.513616 16.1035 0.540635L15.9656 2.41056ZM19.7236 3.25447C19.1223 3.0225 18.5046 2.83513 17.8757 2.6939L18.2865 0.864466C19.0053 1.02587 19.7112 1.24 20.3984 1.5051L19.7236 3.25447ZM22.2919 4.58696C22.0233 4.40753 21.7489 4.23852 21.4693 4.0801L22.3935 2.44869C22.7131 2.62975 23.0267 2.82291 23.3336 3.02796C23.6404 3.23301 23.9389 3.44881 24.2285 3.6748L23.0749 5.15295C22.8216 4.95522 22.5604 4.76639 22.2919 4.58696ZM25.7308 7.94252C25.3597 7.41554 24.9502 6.9166 24.5057 6.44977L25.8637 5.15689C26.3717 5.6904 26.8396 6.26062 27.2638 6.86287L25.7308 7.94252ZM27.1259 10.4773C27.0023 10.1789 26.8681 9.88592 26.7236 9.59884L28.3984 8.75583C28.5635 9.08393 28.717 9.41876 28.8582 9.75975C28.9994 10.1007 29.1277 10.446 29.2429 10.7948L27.4626 11.3829C27.3618 11.0778 27.2495 10.7757 27.1259 10.4773ZM28.1211 15.1779C28.1052 14.5335 28.042 13.8912 27.9318 13.2561L29.7792 12.9356C29.9051 13.6614 29.9774 14.3955 29.9955 15.1319L28.1211 15.1779ZM27.8728 18.0606C27.9358 17.7438 27.987 17.4256 28.0263 17.1066L29.8872 17.3362C29.8422 17.7007 29.7838 18.0644 29.7118 18.4264C29.6398 18.7883 29.5546 19.1467 29.4567 19.5007L27.6496 19.0006C27.7353 18.6909 27.8098 18.3773 27.8728 18.0606ZM26.0887 22.5219C26.4335 21.9773 26.7378 21.408 26.999 20.8188L28.7132 21.5786C28.4146 22.2521 28.0669 22.9026 27.6728 23.525L26.0887 22.5219ZM24.2808 24.7808C24.5092 24.5524 24.7285 24.3163 24.9384 24.0729L26.3581 25.2976C26.1182 25.5757 25.8676 25.8456 25.6066 26.1066L24.2808 24.7808Z" fill="white"/>
<path fill-rule="evenodd" clip-rule="evenodd" d="M15 2.375C12.8416 2.375 10.7165 2.90731 8.81292 3.92478C6.90937 4.94226 5.28612 6.41348 4.08697 8.20814C2.88781 10.0028 2.14977 12.0655 1.9382 14.2135C1.72664 16.3616 2.04809 18.5286 2.87408 20.5227C3.70008 22.5168 5.00511 24.2765 6.67359 25.6458C8.34207 27.015 10.3225 27.9517 12.4394 28.3728C14.5564 28.7939 16.7445 28.6864 18.81 28.0598C20.8755 27.4333 22.7545 26.307 24.2808 24.7808L25.6066 26.1066C23.8623 27.8509 21.7148 29.138 19.3543 29.8541C16.9937 30.5702 14.493 30.693 12.0736 30.2118C9.65428 29.7305 7.39094 28.6601 5.4841 27.0952C3.57727 25.5303 2.0858 23.5192 1.14181 21.2403C0.197821 18.9613 -0.169552 16.4846 0.0722329 14.0297C0.314018 11.5749 1.1575 9.21749 2.52796 7.16645C3.89842 5.11541 5.75356 3.43401 7.92905 2.27118C10.1045 1.10836 12.5332 0.5 15 0.5V2.375Z" fill="white"/>
<path fill-rule="evenodd" clip-rule="evenodd" d="M14.0625 6.125C14.5803 6.125 15 6.54473 15 7.0625V16.8309L21.0901 20.311C21.5397 20.5679 21.6959 21.1406 21.439 21.5901C21.1821 22.0397 20.6094 22.1959 20.1599 21.939L13.5974 18.189C13.3053 18.0221 13.125 17.7114 13.125 17.375V7.0625C13.125 6.54473 13.5447 6.125 14.0625 6.125Z" fill="white"/>
</svg>
