<svg width="30" height="30" viewBox="0 0 30 30" fill="none" xmlns="http://www.w3.org/2000/svg">
<path d="M13.3229 29.1615L1.03647 23.0182C0.401254 22.7006 0 22.0514 0 21.3412L0.000809021 17.7574C0.0222543 17.0277 0.46535 16.3767 1.1364 16.0891L11.25 11.7547V13.7946L1.875 17.8125L12.4844 23.1172C14.068 23.909 15.932 23.909 17.5156 23.1172L28.125 17.8125L18.75 13.7946V11.7547L28.8636 16.0891C29.5347 16.3767 29.9777 17.0277 29.9992 17.7574L30 21.3412C30 22.0514 29.5987 22.7006 28.9635 23.0182L16.6771 29.1615C15.6213 29.6893 14.3787 29.6893 13.3229 29.1615Z" fill="white"/>
<path fill-rule="evenodd" clip-rule="evenodd" d="M14.0625 17.8125V6.5625H15.9375V17.8125H14.0625Z" fill="white"/>
<path d="M18.75 18.2812C18.75 19.0579 17.0711 19.6875 15 19.6875C12.9289 19.6875 11.25 19.0579 11.25 18.2812C11.25 17.5046 12.9289 16.875 15 16.875C17.0711 16.875 18.75 17.5046 18.75 18.2812Z" fill="white"/>
<path d="M18.75 3.75C18.75 5.82107 17.0711 7.5 15 7.5C12.9289 7.5 11.25 5.82107 11.25 3.75C11.25 1.67893 12.9289 0 15 0C17.0711 0 18.75 1.67893 18.75 3.75Z" fill="white"/>
</svg>
