<svg width="17" height="16" viewBox="0 0 17 16" fill="none" xmlns="http://www.w3.org/2000/svg">
<path fill-rule="evenodd" clip-rule="evenodd" d="M11.5 2.5C11.5 1.11929 12.6193 0 14 0C15.3807 0 16.5 1.11929 16.5 2.5C16.5 3.88071 15.3807 5 14 5C13.2411 5 12.5611 4.66182 12.1026 4.12792L5.38498 7.2482C5.45971 7.48549 5.5 7.73804 5.5 8C5.5 8.26196 5.45971 8.51451 5.38498 8.7518L12.1026 11.8721C12.5611 11.3382 13.2411 11 14 11C15.3807 11 16.5 12.1193 16.5 13.5C16.5 14.8807 15.3807 16 14 16C12.6193 16 11.5 14.8807 11.5 13.5C11.5 13.238 11.5403 12.9855 11.615 12.7482L4.89739 9.62792C4.43889 10.1618 3.75894 10.5 3 10.5C1.61929 10.5 0.5 9.38071 0.5 8C0.5 6.61929 1.61929 5.5 3 5.5C3.75894 5.5 4.43889 5.83818 4.89739 6.37208L11.615 3.2518C11.5403 3.01451 11.5 2.76196 11.5 2.5Z" fill="white"/>
</svg>
